<svg xmlns="http://www.w3.org/2000/svg" width="612" height="612" style="enable-background:new 0 0 612 612" xml:space="preserve"><path d="M543.15 91.8H68.85C30.891 91.8 0 122.69 0 160.65v290.7c0 37.96 30.891 68.85 68.85 68.85h474.3c37.959 0 68.85-30.891 68.85-68.851v-290.7c0-37.959-30.891-68.849-68.85-68.849zm0 15.3c11.918 0 22.843 4.054 31.747 10.664L306 326.899 37.103 117.764c8.905-6.61 19.829-10.664 31.748-10.664H543.15zm53.55 344.25c0 12.011-4.116 22.981-10.817 31.916L387.901 285.284l-10.817 10.817 197.981 197.982c-8.935 6.701-19.905 10.817-31.915 10.817H68.85c-12.011 0-22.98-4.116-31.916-10.817l197.982-197.982-10.817-10.817L26.117 483.266C19.416 474.331 15.3 463.36 15.3 451.35v-290.7c0-12.041 4.146-23.042 10.878-31.992L306 346.3l279.821-217.642c6.732 8.951 10.879 19.951 10.879 31.992v290.7z"/></svg>