<svg style="enable-background:new 0 0 100 100" viewBox="0 0 100 100" xml:space="preserve" xmlns="http://www.w3.org/2000/svg"><style>.st0{fill:#fff}.st1{fill:#d43c89}.st2{fill:#b2005f}.st3{stroke:#000}.st3,.st4,.st5{fill:none;stroke-width:3;stroke-linecap:round;stroke-linejoin:round;stroke-miterlimit:10}.st4{fill-rule:evenodd;clip-rule:evenodd;stroke:#000}.st5{stroke:#040404}.st5,.st6,.st7{fill-rule:evenodd;clip-rule:evenodd}.st7{fill:#040404}.st8{fill:url(#SVGID_1_)}.st9{fill:url(#SVGID_2_)}.st10{fill:url(#SVGID_3_)}.st11{fill:url(#SVGID_4_)}.st12{fill:url(#SVGID_5_)}.st13{fill:url(#SVGID_6_)}.st14{fill:url(#SVGID_7_)}.st15{fill:url(#SVGID_8_)}.st16{fill:url(#SVGID_9_)}.st17{fill:url(#SVGID_10_)}.st18{fill:url(#SVGID_11_)}.st19{fill:url(#SVGID_12_)}.st20{fill:url(#SVGID_13_)}.st21{fill:url(#SVGID_14_)}.st22{fill:url(#SVGID_15_)}.st23{fill:url(#SVGID_16_)}.st24{fill:url(#SVGID_17_)}.st25{fill:url(#SVGID_18_)}.st26{fill:url(#SVGID_19_)}.st27{fill:url(#SVGID_20_)}.st28{fill:url(#SVGID_21_)}.st29{fill:url(#SVGID_22_)}.st30{fill:url(#SVGID_23_)}.st31{fill:url(#SVGID_24_)}.st32{fill:url(#SVGID_25_)}.st33{fill:url(#SVGID_26_)}.st34{fill:url(#SVGID_27_)}.st35{fill:url(#SVGID_28_)}.st36{fill:url(#SVGID_29_)}.st37{fill:url(#SVGID_30_)}.st38{fill:url(#SVGID_31_)}.st39{fill:url(#SVGID_32_)}.st40{fill:url(#SVGID_33_)}.st41{fill:url(#SVGID_34_)}.st42{fill:url(#SVGID_35_)}.st43{fill:url(#SVGID_36_)}.st44{fill:url(#SVGID_37_)}.st45{fill:url(#SVGID_38_)}.st46{fill:url(#SVGID_39_)}.st47{fill:url(#SVGID_40_)}.st48{fill:url(#SVGID_41_)}.st49{fill:url(#SVGID_42_)}.st50{fill:url(#SVGID_43_)}.st51{fill:url(#SVGID_44_)}.st52{fill:url(#SVGID_45_)}.st53{fill:#040404}.st54{fill:url(#SVGID_46_)}.st55{fill:url(#SVGID_47_)}.st56{fill:url(#SVGID_48_)}.st57{fill:url(#SVGID_49_)}.st58{fill:url(#SVGID_50_)}.st59{fill:url(#SVGID_51_)}.st60{fill:url(#SVGID_52_)}.st61{fill:url(#SVGID_53_)}.st62{fill:url(#SVGID_54_)}.st63{fill:url(#SVGID_55_)}.st64{fill:url(#SVGID_56_)}.st65{fill:url(#SVGID_57_)}.st66{fill:url(#SVGID_58_)}.st67{fill:url(#SVGID_59_)}.st68{fill:url(#SVGID_60_)}.st69{fill:url(#SVGID_61_)}.st70{fill:url(#SVGID_62_)}.st71,.st72{fill:none;stroke-miterlimit:10}.st71{stroke:#000;stroke-width:3}.st72{stroke:#fff}.st73{fill:#4bc9ff}.st74{fill:#50d}.st75{fill:#ff3a00}.st76{fill:#ffc794}.st77{fill:#f1f1f1}.st78{fill:#eb4e00}.st79{fill:#e6162d}.st80{fill:#f93}.st81{fill:#b92b27}.st82{fill:#00aced}.st83{fill:#bd2125}.st84{fill:#1877f2}.st85{fill:#6665d2}.st86{fill:#ce3056}.st87{fill:#5bb381}.st88{fill:#61c3ec}.st89{fill:#e4b34b}.st90{fill:#181ef2}.st91{fill:red}.st92{fill:#fe466c}.st93{fill:#fa4778}.st94{fill:#f70}.st95{fill:#d95040}.st96{fill:#58a55c}.st97{fill:#4e86ec}.st98{fill:#b6332a}.st99{fill:#f3bd42}.st100{fill-rule:evenodd;clip-rule:evenodd;fill:#1f6bf6}.st101{fill:#520094}.st102{fill:#4477e8}.st103{fill:#3d1d1c}.st104{fill:#ffe812}.st105{fill:#344356}.st106{fill:#00cc76}.st107{fill-rule:evenodd;clip-rule:evenodd;fill:#345e90}.st108{fill:#1f65d8}.st109{fill:#eb3587}.st110{fill-rule:evenodd;clip-rule:evenodd;fill:#603a88}.st111{fill:#e3ce99}.st112{fill:#783af9}.st113{fill:#ff515e}.st114{fill:#ff4906}.st115{fill:#503227}.st116{fill:#4c7bd9}.st117{fill:#69c9d0}.st118{fill:#1b92d1}.st119{fill:#eb4f4a}.st120{fill:#513728}.st121{fill:#f60}.st122{fill-rule:evenodd;clip-rule:evenodd;fill:#b61438}.st123{fill:#fffc00}.st124{fill:#141414}.st125{fill:#94d137}.st126,.st127{fill-rule:evenodd;clip-rule:evenodd;fill:#f1f1f1}.st127{fill:#66e066}.st128{fill:#464eb8}.st129{fill:#7b83eb}.st130{fill:#2d8cff}.st131{fill:#f1a300}.st132{fill:#4ba2f2}.st133{fill:#1a5099}.st134{fill:#ee6060}.st135{fill-rule:evenodd;clip-rule:evenodd;fill:#f48120}.st136{fill:#222}.st137{fill:url(#SVGID_63_)}.st138{fill:#0077b5}.st139{fill:#fc0}.st140{fill:#eb3352}.st141{fill:#f9d265}.st142{fill:#f5b955}.st143{fill:#dc322f}.st144{fill:#4da94c}.st145{fill:#39802f}.st146{fill:#f6bd41}.st147{fill:#eb5141}.st148{fill:#2165d6}.st149{fill:#2f83f7}.st150{fill:#dd2a7b}</style><g id="Layer_2"><path d="M81.571 24.34c-.535-.708-1.674-.663-2.181.048-.696.935-7.205 9.305-21.407 15.122-.728.281-1.078 1.205-.717 1.899a94.541 94.541 0 0 1 2.57 5.66c.58 1.056.701 3.024 2.286 2.869 13.491-1.69 26.819 1.222 26.952 1.252.832.208 1.714-.499 1.683-1.363-.06-9.236-3.323-18.287-9.186-25.487zm-10.56 22.299c-2.633 0-5.395.121-8.176.422-.774-1.867-1.551-3.683-2.446-5.557 11.224-4.873 17.544-11.118 20.088-14.06a38.183 38.183 0 0 1 7.464 20.701c-2.969-.532-9.433-1.506-16.93-1.506zM54.258 35.56c.33.611 1.068.876 1.7.635 14.53-5.452 20.643-13.832 21.292-14.769a1.39 1.39 0 0 0-.216-1.827c-9.793-8.845-23.766-12.323-36.574-9.171a1.386 1.386 0 0 0-.791 2.18c.801 1.076 8.019 10.865 14.589 22.952zM50 12.055a37.765 37.765 0 0 1 24.22 8.776c-1.927 2.347-7.44 8.087-18.117 12.335-5.118-9.262-10.502-17.057-12.946-20.469A39.715 39.715 0 0 1 50 12.055zM89.321 55.13c-.586-.187-3.741-1.153-8.377-1.797-1.813-.219-2.172 2.468-.38 2.748 3.057.424 5.415.989 6.758 1.354-1.773 9.136-6.91 17.397-14.331 23.083-1.059-5.409-3.116-14.284-6.749-24.617a52.967 52.967 0 0 1 9.022-.316c1.808.077 1.951-2.66.131-2.771-3.879-.186-7.663.009-11.245.582-.835.114-1.39 1.055-1.083 1.844 4.48 12.365 6.688 22.803 7.605 27.924.145.96 1.349 1.475 2.139.902 9.321-6.345 15.683-16.331 17.457-27.395a1.388 1.388 0 0 0-.947-1.541zM11.431 43.475c4.336-.002 18.915-.184 36.792-4.855a1.388 1.388 0 0 0 .853-2.021 233.738 233.738 0 0 0-7.321-12.135c-.414-.644-1.271-.829-1.913-.413s-.827 1.274-.413 1.918a235.943 235.943 0 0 1 6.345 10.418c-14.742 3.693-27.839 4.239-32.583 4.308 2.695-10.516 9.9-19.525 19.627-24.505a237.4 237.4 0 0 1 3.931 5.694 1.381 1.381 0 0 0 1.919.378 1.389 1.389 0 0 0 .377-1.925 223.425 223.425 0 0 0-4.671-6.726 1.383 1.383 0 0 0-1.71-.437c-11.549 5.477-19.987 16.18-22.571 28.631-.191.824.491 1.682 1.338 1.67zM58.28 56.098c-.244-.822-1.441-1.053-1.839-.776-21.487 7.11-34.276 25.699-31.456 27.109 11.394 9.093 27.661 11.2 40.955 5.379.587-.254.925-.877.817-1.509-.756-4.414-3.095-16.195-8.477-30.203zm-8.259 32.195c-8.136 0-15.858-2.536-22.405-7.346 2.054-3.592 10.163-15.829 28.562-22.592 4.572 12.2 6.781 22.506 7.66 27.325-4.37 1.734-9.012 2.613-13.817 2.613z"/><path d="M50 2.5C23.808 2.5 2.5 23.864 2.5 50.123c2.609 63.179 92.4 63.16 95 0C97.5 23.864 76.192 2.5 50 2.5zm0 92.472c-24.666 0-44.733-20.119-44.733-44.849 2.457-59.498 87.018-59.481 89.466 0 0 24.73-20.067 44.849-44.733 44.849z"/><path d="M53.185 51.85c1.186-.372 3.002-.628 2.386-2.348a125.638 125.638 0 0 0-3.234-6.775 1.382 1.382 0 0 0-1.627-.694c-18.467 5.542-36.591 5.619-40.067 5.572-1.43.01-1.488 1.491-1.42 2.6A40.754 40.754 0 0 0 19.705 77.52c.593.689 1.781.57 2.22-.228 1.133-1.935 11.627-19.086 31.26-25.442zM20.557 74.26a37.98 37.98 0 0 1-8.568-23.876c5.492-.024 21.699-.541 38.405-5.367.623 1.395 1.61 2.954 1.928 4.197C34.51 54.981 23.874 69.208 20.557 74.26z"/></g></svg>